<svg xmlns="http://www.w3.org/2000/svg" version="1.1" xmlns:xlink="http://www.w3.org/1999/xlink" width="512" height="512" x="0" y="0" viewBox="0 0 64 64" style="enable-background:new 0 0 512 512" xml:space="preserve" class=""><g><g data-name="Layer 32"><path d="M22 39h2v2h-2zM28 39h2v2h-2zM34 39h2v2h-2zM40 39h2v2h-2z" fill="#ba8552" opacity="1" data-original="#ba8552" class=""></path><path d="M49.213 10.231a3.962 3.962 0 0 0-.676-2.842 4.006 4.006 0 0 0-3.27-1.689 3.981 3.981 0 0 0-6.246-.357 3.832 3.832 0 0 0-.483-.955A4.006 4.006 0 0 0 35.267 2.7a3.986 3.986 0 0 0-6.532 0 4.006 4.006 0 0 0-3.27 1.688 3.918 3.918 0 0 0-.483.955 3.981 3.981 0 0 0-6.246.357 4.006 4.006 0 0 0-3.27 1.688 3.962 3.962 0 0 0-.676 2.842A30.866 30.866 0 0 0 1 36v26a1 1 0 0 0 1 1h4a1 1 0 0 0 1-1V42.984a4.97 4.97 0 0 0 2 1.6V51a4.991 4.991 0 0 0 3.582 4.77l-2.5 5.836A1 1 0 0 0 11 63h4a1 1 0 0 0 .813-.419L20.514 56h22.972l4.7 6.581A1 1 0 0 0 49 63h4a1 1 0 0 0 .919-1.394l-2.5-5.836A4.991 4.991 0 0 0 55 51v-6.415a4.973 4.973 0 0 0 2-1.6V62a1 1 0 0 0 1 1h4a1 1 0 0 0 1-1V36a30.866 30.866 0 0 0-13.787-25.769Zm-9.025-3.062a1.989 1.989 0 0 1 3.624 0 1 1 0 0 0 1.09.565 1.987 1.987 0 0 1 1.628 3.494 1 1 0 0 0 0 1.544 1.987 1.987 0 0 1-1.63 3.494 1 1 0 0 0-1.09.565 1.989 1.989 0 0 1-3.624 0 1 1 0 0 0-1.09-.565 2.008 2.008 0 0 1-2-.808 1.967 1.967 0 0 1-.243-.493 3.971 3.971 0 0 0 1.683-1.354 3.928 3.928 0 0 0 .52-1.048 3 3 0 1 0 .165-1.686A4 4 0 0 0 38.52 9a4 4 0 0 0 .586-1.266 1 1 0 0 0 1.082-.565ZM41 12a1 1 0 1 1 1 1 1 1 0 0 1-1-1ZM27.47 8.228a1.987 1.987 0 0 1 1.63-3.494 1 1 0 0 0 1.09-.565 1.989 1.989 0 0 1 3.624 0 1 1 0 0 0 1.09.565 1.987 1.987 0 0 1 1.626 3.494 1 1 0 0 0 0 1.544 1.987 1.987 0 0 1-1.63 3.494 1 1 0 0 0-1.09.565 1.989 1.989 0 0 1-3.624 0 1 1 0 0 0-.909-.582 1.017 1.017 0 0 0-.181.017 1.987 1.987 0 0 1-1.626-3.494 1 1 0 0 0 0-1.544Zm-10 3a1.987 1.987 0 0 1 1.63-3.494 1 1 0 0 0 1.09-.565 1.989 1.989 0 0 1 3.624 0 1 1 0 0 0 1.082.565A4 4 0 0 0 25.48 9a4.02 4.02 0 0 0-.7 1.876 3 3 0 1 0 .166 1.687 3.914 3.914 0 0 0 .52 1.048 3.962 3.962 0 0 0 1.683 1.353 1.966 1.966 0 0 1-.244.495 2.009 2.009 0 0 1-2 .807 1 1 0 0 0-1.09.565 1.989 1.989 0 0 1-3.624 0 1 1 0 0 0-1.09-.565 1.987 1.987 0 0 1-1.628-3.494 1 1 0 0 0 0-1.544ZM23 12a1 1 0 1 1-1-1 1 1 0 0 1 1 1ZM5 36v25H3V36a28.873 28.873 0 0 1 12.3-23.7 4.023 4.023 0 0 0-.456 2.878A26.841 26.841 0 0 0 5 36Zm6 15v-6.878a.766.766 0 0 0 .021-.122 1 1 0 0 0-.75-1.092A3 3 0 1 1 14 40v12a3.959 3.959 0 0 0 .556 2H14a3 3 0 0 1-3-3Zm37 1a2 2 0 0 1-2 2H33v-4a2 2 0 0 1 2-2h11a2 2 0 0 1 2 2Zm-32 0v-2a2 2 0 0 1 2-2h11a2 2 0 0 1 2 2v4H18a2 2 0 0 1-2-2Zm32-5.444A3.959 3.959 0 0 0 46 46H35a3.99 3.99 0 0 0-3 1.357A3.99 3.99 0 0 0 29 46H18a3.959 3.959 0 0 0-2 .556V34a1.486 1.486 0 0 1 1.186-1.445l10.046-2.367A8.4 8.4 0 0 1 29 30a2 2 0 0 1 2 2 1 1 0 0 0 2 0 2 2 0 0 1 2-2 8.334 8.334 0 0 1 1.748.184l10.087 2.375A1.481 1.481 0 0 1 48 34ZM14.484 61h-1.967l2.142-5h3.4Zm35.032 0-3.573-5h3.4l2.142 5Zm4.311-18.115a1 1 0 0 0-.827.985V51a3 3 0 0 1-3 3h-.556A3.959 3.959 0 0 0 50 52V40a3 3 0 1 1 3.827 2.885ZM53 35a4.948 4.948 0 0 0-3 1.026V34a3.486 3.486 0 0 0-2.727-3.393l-10.085-2.375A10.445 10.445 0 0 0 35 28a3.99 3.99 0 0 0-3 1.357A3.99 3.99 0 0 0 29 28a10.5 10.5 0 0 0-2.207.236L16.747 30.6A3.489 3.489 0 0 0 14 34v2.026a4.932 4.932 0 0 0-7 1V36a24.845 24.845 0 0 1 8.779-19 4.016 4.016 0 0 0 2.954 1.3 3.986 3.986 0 0 0 6.532 0 4.006 4.006 0 0 0 3.27-1.688 3.959 3.959 0 0 0 .485-.952 3.977 3.977 0 0 0 5.956 0 3.959 3.959 0 0 0 .485.952 4.006 4.006 0 0 0 3.27 1.688 3.986 3.986 0 0 0 6.532 0 4.016 4.016 0 0 0 2.958-1.3A24.844 24.844 0 0 1 57 36v1.031A4.982 4.982 0 0 0 53 35Zm8 26h-2V36a26.841 26.841 0 0 0-9.845-20.822A4.023 4.023 0 0 0 48.7 12.3 28.873 28.873 0 0 1 61 36Z" fill="#ba8552" opacity="1" data-original="#ba8552" class=""></path><path d="M32 12a3 3 0 1 0-3-3 3 3 0 0 0 3 3Zm0-4a1 1 0 1 1-1 1 1 1 0 0 1 1-1Z" fill="#ba8552" opacity="1" data-original="#ba8552" class=""></path></g></g></svg>