<svg xmlns="http://www.w3.org/2000/svg" version="1.1" xmlns:xlink="http://www.w3.org/1999/xlink" width="512" height="512" x="0" y="0" viewBox="0 0 52 52" style="enable-background:new 0 0 512 512" xml:space="preserve" class=""><g><path d="M3 47.88a1 1 0 1 0 0 2h46a1 1 0 0 0 1-1 .99.99 0 0 0-.908-.981c.045-.192.075-.39.075-.596V35.68a5.948 5.948 0 0 0-2.8-5.04h2.222a1 1 0 0 0 1-1v-1.923a1 1 0 1 0-2 0v.923h-2.817l-1.81-4.042c-1.285-2.872-4.232-4.728-7.505-4.728H24.419c-3.273 0-6.219 1.856-7.505 4.728l-1.81 4.042h-2.817v-.923a1 1 0 1 0-2 0v1.923a1 1 0 0 0 1 1h2.223a5.948 5.948 0 0 0-2.801 5.04l-.002 11.623c0 .2.027.391.07.577H5.49V19.333h10.857c1.075 0 1.949-.879 1.949-1.96V4.483c0-1.08-.874-1.96-1.95-1.96H4.488a1 1 0 0 0-1 1l.004 44.357H3zm13.348-30.547H5.49V4.523h10.806zm3.48 26.523h20.219v3.447c0 .2.027.391.07.577h-20.36c.043-.186.07-.378.07-.577zm27.339 0v3.447c0 .29-.211.523-.486.577h-4.15a.585.585 0 0 1-.484-.577v-3.447zM35.863 31.727l-.597 2.54c-.31.963-1.108 1.516-2.189 1.516h-6.5c-1.08 0-1.879-.552-2.166-1.44l-.619-2.616zM18.74 25.415c.95-2.12 3.232-3.545 5.679-3.545h11.038c2.448 0 4.73 1.425 5.68 3.545l1.926 4.302h-26.25zm-2.078 6.312h5.075l.748 3.151c.575 1.792 2.143 2.905 4.092 2.905h6.5c1.948 0 3.517-1.113 4.114-2.98l.727-3.076h5.297a3.956 3.956 0 0 1 3.952 3.953v6.173c-.1 0-35.607.004-34.458 0V35.68a3.957 3.957 0 0 1 3.953-3.953zm-3.955 15.576v-3.447h5.12v3.447a.585.585 0 0 1-.483.577h-4.15a.593.593 0 0 1-.487-.577z" fill="#cd925a" opacity="1" data-original="#cd925a" class=""></path><path d="M17.707 39.723c1.654 0 3-1.346 3-3s-1.346-3-3-3-3 1.346-3 3 1.346 3 3 3zm0-4a1.001 1.001 0 1 1-1 1c0-.551.448-1 1-1zM42.167 39.723c1.654 0 3-1.346 3-3s-1.346-3-3-3-3 1.346-3 3 1.346 3 3 3zm0-4a1.001 1.001 0 1 1-1 1c0-.551.448-1 1-1zM7.795 14.356a1 1 0 1 0 2 0V12.35h1.266a2.935 2.935 0 0 0 2.931-2.932A2.928 2.928 0 0 0 11.061 6.5H8.792a1 1 0 0 0-1 1v3.85c0 .005.003.009.003.014zm4.197-4.939a.933.933 0 0 1-.931.932H9.795V8.5h1.266c.513 0 .931.411.931.917zM26.76 15.88a1 1 0 0 0 1.427 1.403c4.072-4.138 4.021-10.803-.117-14.875a1 1 0 1 0-1.402 1.424c3.35 3.3 3.39 8.698.093 12.048z" fill="#cd925a" opacity="1" data-original="#cd925a" class=""></path><path d="M23.97 4.656a1.001 1.001 0 0 0 .012 1.414 5.361 5.361 0 0 1 .059 7.572 1 1 0 0 0 1.426 1.404c2.845-2.89 2.808-7.556-.082-10.402a1 1 0 0 0-1.414.012z" fill="#cd925a" opacity="1" data-original="#cd925a" class=""></path><path d="M21.312 6.892a1 1 0 0 0 .011 1.415c.86.847.871 2.238.024 3.099a1 1 0 0 0 1.425 1.403 4.196 4.196 0 0 0-.046-5.927 1 1 0 0 0-1.414.01z" fill="#cd925a" opacity="1" data-original="#cd925a" class=""></path></g></svg>