<svg xmlns="http://www.w3.org/2000/svg" version="1.1" xmlns:xlink="http://www.w3.org/1999/xlink" width="512" height="512" x="0" y="0" viewBox="0 0 682.667 682.667" style="enable-background:new 0 0 512 512" xml:space="preserve" class=""><g><defs><clipPath id="a" clipPathUnits="userSpaceOnUse"><path d="M0 512h512V0H0Z" fill="#a37951" opacity="1" data-original="#a37951"></path></clipPath></defs><g clip-path="url(#a)" transform="matrix(1.33333 0 0 -1.33333 0 682.667)"><path d="M0 0c-55.846 53.917-125.552 94.011-142.627 52.894-.205-.467-1.842-4.91-3.1-7.656l-87.278-245.213c-5-14.086-3.509-24.577 2.983-29.924 5.35-6.459 15.847-7.978 29.94-2.981l245.344 87.231c2.749 1.257 7.193 2.893 7.661 3.098C94.062-125.485 53.946-55.816 0 0Z" style="stroke-width:15;stroke-linecap:round;stroke-linejoin:round;stroke-miterlimit:10;stroke-dasharray:none;stroke-opacity:1" transform="translate(268.27 268.29)" fill="none" stroke="#a37951" stroke-width="15" stroke-linecap="round" stroke-linejoin="round" stroke-miterlimit="10" stroke-dasharray="none" stroke-opacity="" data-original="#a37951" class=""></path><path d="M0 0c27.514-31.181 49.268-64.7 54.648-90.066L9.62-106.081c-11.93 26.067-34.882 56.46-61.08 83.608-27.164 26.184-57.572 49.124-83.653 61.048l16.023 45.004c26.49-5.611 61.869-29.048 94.178-58.243" style="stroke-width:15;stroke-linecap:round;stroke-linejoin:round;stroke-miterlimit:10;stroke-dasharray:none;stroke-opacity:1" transform="translate(232.102 203.18)" fill="none" stroke="#a37951" stroke-width="15" stroke-linecap="round" stroke-linejoin="round" stroke-miterlimit="10" stroke-dasharray="none" stroke-opacity="" data-original="#a37951" class=""></path><path d="M0 0c17.573-18.206 33.683-37.874 45.993-56.722L-5.292-74.929c-9.678 12.654-20.643 25.337-32.28 37.377-12.047 11.631-24.736 22.59-37.397 32.262l18.216 51.258C-37.894 33.665-18.216 17.563 0 0Z" style="stroke-width:15;stroke-linecap:round;stroke-linejoin:round;stroke-miterlimit:10;stroke-dasharray:none;stroke-opacity:1" transform="translate(130.555 130.648)" fill="none" stroke="#a37951" stroke-width="15" stroke-linecap="round" stroke-linejoin="round" stroke-miterlimit="10" stroke-dasharray="none" stroke-opacity="" data-original="#a37951" class=""></path><path d="m0 0 31.549 37.932c4.006 4.004 10.555 4.004 14.561 0L78.272 5.815c4.006-4.003 4.006-10.549 0-14.553L-31.022-99.505m-28.245 28.2 36.46 43.835" style="stroke-width:15;stroke-linecap:round;stroke-linejoin:round;stroke-miterlimit:10;stroke-dasharray:none;stroke-opacity:1" transform="translate(312.626 353.388)" fill="none" stroke="#a37951" stroke-width="15" stroke-linecap="round" stroke-linejoin="round" stroke-miterlimit="10" stroke-dasharray="none" stroke-opacity="" data-original="#a37951" class=""></path><path d="M0 0c33.917 54.472 23.216 106.636 15.292 138.84-9.649 39.276-64.267 29.953-53.098-11.602 9.503-35.448 13.655-63.414 6.988-108.331" style="stroke-width:15;stroke-linecap:round;stroke-linejoin:round;stroke-miterlimit:10;stroke-dasharray:none;stroke-opacity:1" transform="translate(221.225 307.683)" fill="none" stroke="#a37951" stroke-width="15" stroke-linecap="round" stroke-linejoin="round" stroke-miterlimit="10" stroke-dasharray="none" stroke-opacity="" data-original="#a37951" class=""></path><path d="M0 0c55.524 29.954 106.4 16.774 137.861 7.335 38.772-11.631 26.696-65.665-14.268-52.427-33.947 10.988-61.11 16.541-104.119 12.829" style="stroke-width:15;stroke-linecap:round;stroke-linejoin:round;stroke-miterlimit:10;stroke-dasharray:none;stroke-opacity:1" transform="translate(308.24 220.48)" fill="none" stroke="#a37951" stroke-width="15" stroke-linecap="round" stroke-linejoin="round" stroke-miterlimit="10" stroke-dasharray="none" stroke-opacity="" data-original="#a37951" class=""></path><path d="m0 0-6.258-22.005c-.701-2.396-.672-3.127-3.04-4.442L-30.292-38.02c-4.064-2.25-4.006-3.331-.117-5.903l19.152-13.53c2.046-1.461 2.836-3.566 3.333-6.254l4.065-22.005c.701-4.617 1.783-4.91 5.496-2.104l17.573 13.53c1.812 1.403 5.059 2.28 7.339 1.958l21.958-2.922c4.649-.584 5.409.205 3.743 4.559l-7.515 21.099c-.906 2.571-1.256 4.763-.205 7.072l9.796 21.304c2.075 4.15 1.608 5.114-3.07 5.026l-23.947-.467c-2.719-.03-3.07.613-4.854 2.338L6.023 1.607C2.689 4.822 1.286 4.442 0 0Z" style="stroke-width:15;stroke-linecap:round;stroke-linejoin:round;stroke-miterlimit:10;stroke-dasharray:none;stroke-opacity:1" transform="translate(422.302 498.277)" fill="none" stroke="#a37951" stroke-width="15" stroke-linecap="round" stroke-linejoin="round" stroke-miterlimit="10" stroke-dasharray="none" stroke-opacity="" data-original="#a37951" class=""></path><path d="m0 0-29.239 16.891c-3.304 1.9-8.187 1.023-9.503-2.572l-15.935-43.016c-1.345-3.595-.761-7.598 2.543-9.498l15.848-9.176c3.334-1.9 7.076-.38 9.503 2.572L2.544-9.498C5-6.546 3.333-1.9 0 0Z" style="stroke-width:15;stroke-linecap:round;stroke-linejoin:round;stroke-miterlimit:10;stroke-dasharray:none;stroke-opacity:1" transform="translate(337.538 481.62)" fill="none" stroke="#a37951" stroke-width="15" stroke-linecap="round" stroke-linejoin="round" stroke-miterlimit="10" stroke-dasharray="none" stroke-opacity="" data-original="#a37951" class=""></path><path d="M0 0h44.269c5.028 0 9.969-4.179 9.122-9.118L43.274-68.412c-.848-4.938-4.123-9.117-9.123-9.117H10.146c-5.029 0-8.274 4.179-9.123 9.117L-9.122-9.118C-9.97-4.179-4.999 0 0 0Z" style="stroke-width:15;stroke-linecap:round;stroke-linejoin:round;stroke-miterlimit:10;stroke-dasharray:none;stroke-opacity:1" transform="translate(451.014 369.84)" fill="none" stroke="#a37951" stroke-width="15" stroke-linecap="round" stroke-linejoin="round" stroke-miterlimit="10" stroke-dasharray="none" stroke-opacity="" data-original="#a37951" class=""></path><path d="m0 0 42.747 11.456c4.854 1.315 10.702-1.461 11.17-6.43l5.584-59.907c.468-4.997-1.608-9.878-6.461-11.163l-23.187-6.225c-4.854-1.286-9.064 1.899-11.169 6.458L-6.462-11.163C-8.567-6.604-4.854-1.286 0 0Z" style="stroke-width:15;stroke-linecap:round;stroke-linejoin:round;stroke-miterlimit:10;stroke-dasharray:none;stroke-opacity:1" transform="translate(14.565 354.907)" fill="none" stroke="#a37951" stroke-width="15" stroke-linecap="round" stroke-linejoin="round" stroke-miterlimit="10" stroke-dasharray="none" stroke-opacity="" data-original="#a37951" class=""></path><path d="m0 0-28.829-28.814c-3.275-3.273-9.211-3.77-11.871 0l-32.046 45.208c-2.691 3.77-3.275 8.621 0 11.894l15.613 15.606c3.275 3.273 8.129 2.688 11.901 0L0 11.865C3.771 9.205 3.275 3.273 0 0Z" style="stroke-width:15;stroke-linecap:round;stroke-linejoin:round;stroke-miterlimit:10;stroke-dasharray:none;stroke-opacity:1" transform="translate(374.291 41.459)" fill="none" stroke="#a37951" stroke-width="15" stroke-linecap="round" stroke-linejoin="round" stroke-miterlimit="10" stroke-dasharray="none" stroke-opacity="" data-original="#a37951" class=""></path><path d="m0 0 6.812-23.875c.761-2.601.731-3.39 3.305-4.822l22.777-12.566c4.415-2.426 4.356-3.595.146-6.4L12.251-62.362C10-63.94 9.152-66.22 8.596-69.142L4.21-93.018c-.789-4.997-1.959-5.318-5.994-2.279l-19.034 14.699c-1.989 1.52-5.497 2.455-7.982 2.134l-23.83-3.186c-5.029-.642-5.877.234-4.064 4.939l8.157 22.882c.995 2.805 1.374 5.202.234 7.685l-10.643 23.116c-2.281 4.529-1.754 5.582 3.304 5.465l26.023-.497c2.953-.059 3.304.643 5.263 2.542L-6.521 1.753C-2.895 5.26-1.375 4.851 0 0Z" style="stroke-width:15;stroke-linecap:round;stroke-linejoin:round;stroke-miterlimit:10;stroke-dasharray:none;stroke-opacity:1" transform="translate(103.743 497.05)" fill="none" stroke="#a37951" stroke-width="15" stroke-linecap="round" stroke-linejoin="round" stroke-miterlimit="10" stroke-dasharray="none" stroke-opacity="" data-original="#a37951" class=""></path><path d="m0 0-12.777-21.333c-1.404-2.337-1.579-3.098-4.445-3.799l-25.292-6.254c-4.912-1.227-5.145-2.366-1.783-6.166l16.286-19.609c1.754-2.104 1.989-4.529 1.754-7.481l-1.93-24.255c-.555-5.026.498-5.64 5.206-3.741L-.76-83.374c2.339.965 5.965.965 8.275 0l22.251-9.264c4.677-1.899 5.73-1.285 5.204 3.741l-1.959 24.255c-.234 2.952 0 5.377 1.755 7.481L51.08-37.552c3.363 3.8 3.1 4.939-1.812 6.166l-25.292 6.254c-2.866.701-3.04 1.462-4.445 3.799L6.754 0C4.182 4.325 2.603 4.325 0 0Z" style="stroke-width:15;stroke-linecap:round;stroke-linejoin:round;stroke-miterlimit:10;stroke-dasharray:none;stroke-opacity:1" transform="translate(450.722 143.535)" fill="none" stroke="#a37951" stroke-width="15" stroke-linecap="round" stroke-linejoin="round" stroke-miterlimit="10" stroke-dasharray="none" stroke-opacity="" data-original="#a37951" class=""></path></g></g></svg>