<svg xmlns="http://www.w3.org/2000/svg" version="1.1" xmlns:xlink="http://www.w3.org/1999/xlink" width="512" height="512" x="0" y="0" viewBox="0 0 128 128" style="enable-background:new 0 0 512 512" xml:space="preserve" class=""><g><path d="M44 63a2 2 0 0 0 2-2v-3.26c0-6.28 3.45-9.74 9.72-9.74h.55a16.1 16.1 0 0 1-4.39-3.58C45.7 45.8 42 50.63 42 57.74V61a2 2 0 0 0 2 2ZM84 62a2 2 0 0 0 2-2v-2.26c0-7.1-3.7-11.94-9.88-13.32A16.1 16.1 0 0 1 71.73 48h.55c6.27 0 9.72 3.46 9.72 9.74V60a2 2 0 0 0 2 2ZM76 34a12 12 0 1 0-12 12 12 12 0 0 0 12-12Zm-20 0a8 8 0 1 1 8 8 8 8 0 0 1-8-8ZM96 62a2 2 0 0 0 2-2V48a6 6 0 0 0-6-6h-4a2 2 0 0 0 0 4h4a2 2 0 0 1 2 2v12a2 2 0 0 0 2 2Z" fill="#a37951" opacity="1" data-original="#a37951" class=""></path><path d="M22 47h4.05a9.91 9.91 0 0 1 1.3-4H22a2 2 0 0 1-2-2V6a2 2 0 0 1 2-2h84a2 2 0 0 1 2 2v35a2 2 0 0 1-2 2h-5.35a9.91 9.91 0 0 1 1.3 4H106a6 6 0 0 0 6-6V6a6 6 0 0 0-6-6H22a6 6 0 0 0-6 6v35a6 6 0 0 0 6 6Z" fill="#a37951" opacity="1" data-original="#a37951" class=""></path><path d="M40 42h-4a6 6 0 0 0-6 6v12a2 2 0 0 0 4 0V48a2 2 0 0 1 2-2h4a2 2 0 0 0 0-4ZM53 14a2 2 0 0 0 0-4h-6a2 2 0 0 0 0 4ZM67 14a2 2 0 0 0 0-4h-6a2 2 0 0 0 0 4ZM81 14a2 2 0 0 0 0-4h-6a2 2 0 0 0 0 4ZM64 100a11 11 0 1 0-11-11 11 11 0 0 0 11 11Zm0-18a7 7 0 1 1-7 7 7 7 0 0 1 7-7ZM72.54 104H55.46C48.32 104 45 107.26 45 114.25V126a2 2 0 0 0 4 0v-11.75c0-4.73 1.57-6.25 6.46-6.25h17.08c4.89 0 6.46 1.52 6.46 6.25V126a2 2 0 0 0 4 0v-11.75c0-6.99-3.32-10.25-10.46-10.25ZM109 78a11 11 0 1 0 11 11 11 11 0 0 0-11-11Zm0 18a7 7 0 1 1 7-7 7 7 0 0 1-7 7ZM117.54 104h-17.08C93.32 104 90 107.26 90 114.25V126a2 2 0 0 0 4 0v-11.75c0-4.73 1.57-6.25 6.46-6.25h17.08c4.89 0 6.46 1.52 6.46 6.25V126a2 2 0 0 0 4 0v-11.75c0-6.99-3.32-10.25-10.46-10.25ZM49 76a2 2 0 0 0-2-2h-4a2 2 0 0 0 0 4h4a2 2 0 0 0 2-2ZM86 74h-4a2 2 0 0 0 0 4h4a2 2 0 0 0 0-4Z" fill="#a37951" opacity="1" data-original="#a37951" class=""></path><path d="M98.54 78.27 91.71 67A2 2 0 0 0 90 66h-6.68a2 2 0 0 0-.33-.24l-16.88-9.65 1.11-1.46a.43.43 0 0 1 .54-.1l8.39 4.82a2 2 0 0 0 2-3.47L69.68 51a4.42 4.42 0 0 0-5.63 1.17l-.55.72-.56-.74a4.44 4.44 0 0 0-5.69-1.11l-8.39 4.86a2 2 0 1 0 2 3.47l8.32-4.78c.15-.08.43-.17.6 0l1.12 1.47-16.9 9.7a2 2 0 0 0-.33.24H39a2 2 0 0 0-1.7.94l-7.38 11.81a15 15 0 0 1 2.49 3.57L40.11 70h48.76l7.05 11.67a15.08 15.08 0 0 1 2.62-3.4ZM62.82 59.61a4.39 4.39 0 0 0 .68-.46 4.08 4.08 0 0 0 .63.43L75.35 66h-23.7ZM19 100A11 11 0 1 0 8 89a11 11 0 0 0 11 11Zm0-18a7 7 0 1 1-7 7 7 7 0 0 1 7-7ZM27.54 104H10.46C3.32 104 0 107.26 0 114.25V126a2 2 0 0 0 4 0v-11.75c0-4.73 1.57-6.25 6.46-6.25h17.08c4.89 0 6.46 1.52 6.46 6.25V126a2 2 0 0 0 4 0v-11.75c0-6.99-3.32-10.25-10.46-10.25ZM2 16a2 2 0 0 0 2-2V2a2 2 0 0 0-4 0v12a2 2 0 0 0 2 2ZM10 8a2 2 0 0 0 2-2V2a2 2 0 0 0-4 0v4a2 2 0 0 0 2 2ZM126 0a2 2 0 0 0-2 2v12a2 2 0 0 0 4 0V2a2 2 0 0 0-2-2ZM118 8a2 2 0 0 0 2-2V2a2 2 0 0 0-4 0v4a2 2 0 0 0 2 2Z" fill="#a37951" opacity="1" data-original="#a37951" class=""></path></g></svg>