<svg xmlns="http://www.w3.org/2000/svg" version="1.1" xmlns:xlink="http://www.w3.org/1999/xlink" width="512" height="512" x="0" y="0" viewBox="0 0 512 512" style="enable-background:new 0 0 512 512" xml:space="preserve" class=""><g><path d="M255.998 487.133c127.422 0 231.088-103.706 231.088-231.181 0-127.419-103.665-231.084-231.088-231.084-127.419 0-231.084 103.665-231.084 231.084 0 127.474 103.665 231.181 231.084 231.181zm0-446.893c118.944 0 215.715 96.767 215.715 215.711 0 118.997-96.771 215.809-215.715 215.809S40.287 374.948 40.287 255.951c0-118.944 96.767-215.711 215.711-215.711z" fill="#a37951" opacity="1" data-original="#a37951"></path><path d="M256.039 440.808c101.905 0 184.808-82.903 184.808-184.808S357.944 71.192 256.039 71.192C154.093 71.192 71.153 154.095 71.153 256s82.94 184.808 184.886 184.808zm0-354.243c93.427 0 169.435 76.008 169.435 169.435s-76.008 169.435-169.435 169.435c-93.472 0-169.514-76.008-169.514-169.435S162.568 86.565 256.039 86.565z" fill="#a37951" opacity="1" data-original="#a37951"></path><path d="M389.227 265.522h20.792a7.686 7.686 0 0 0 0-15.372h-20.792a7.686 7.686 0 0 0 0 15.372zM122.773 250.149h-20.796a7.686 7.686 0 0 0 0 15.372h20.796a7.686 7.686 0 0 0 0-15.372zM255.998 383.374a7.686 7.686 0 0 0-7.686 7.686v20.796a7.686 7.686 0 0 0 15.372 0V391.06a7.685 7.685 0 0 0-7.686-7.686zM255.998 132.297a7.686 7.686 0 0 0 7.686-7.686v-20.796a7.686 7.686 0 0 0-15.372 0v20.796a7.686 7.686 0 0 0 7.686 7.686zM210.314 261.218c1.746 23.186 21.117 41.527 44.731 41.527l.04-.002 66.364 35.431a7.691 7.691 0 0 0 9.056-1.347 7.684 7.684 0 0 0 1.344-9.056l-32.754-61.285c5.903-30.041-19.455-57.385-50.268-53.086l-67.302-35.953a7.67 7.67 0 0 0-9.056 1.344 7.684 7.684 0 0 0-1.344 9.056zm66.715 35.811c8.662-4.837 13.45-11.917 14.182-12.686l15.15 28.348zm7.543-39.264c0 .029-.016.053-.016.082 0 15.55-12.73 29.526-29.511 29.526-16.251 0-29.471-13.208-29.521-29.459-.004-.023.006-.044.002-.067 0-15.759 12.881-29.556 29.518-29.556 16.265 0 29.495 13.217 29.528 29.474zm-54.731-37.081c-5.616 3.822-11.154 9.708-14.777 16.801l-18.455-34.554z" fill="#a37951" opacity="1" data-original="#a37951"></path></g></svg>