<svg xmlns="http://www.w3.org/2000/svg" version="1.1" xmlns:xlink="http://www.w3.org/1999/xlink" width="512" height="512" x="0" y="0" viewBox="0 0 512 512" style="enable-background:new 0 0 512 512" xml:space="preserve" class=""><g><path d="M25.6 307.2h8.533v59.733c.028 23.552 19.114 42.638 42.667 42.667a42.222 42.222 0 0 0 25.6-8.755v8.755c0 23.564 19.103 42.667 42.667 42.667s42.667-19.103 42.667-42.667V307.2h136.533v102.4c0 23.564 19.103 42.667 42.667 42.667s42.667-19.103 42.667-42.667v-8.755a42.222 42.222 0 0 0 25.6 8.755c23.552-.028 42.638-19.114 42.667-42.667V307.2h8.533c14.138 0 25.6-11.462 25.6-25.6v-51.2c0-14.138-11.461-25.6-25.6-25.6h-8.533v-59.733c-.028-23.552-19.114-42.638-42.667-42.667a42.222 42.222 0 0 0-25.6 8.755V102.4c0-23.564-19.103-42.667-42.667-42.667s-42.667 19.103-42.667 42.667v102.4H187.733V102.4c0-23.564-19.103-42.667-42.667-42.667S102.4 78.836 102.4 102.4v8.755a42.222 42.222 0 0 0-25.6-8.755c-23.552.028-42.638 19.114-42.667 42.667V204.8H25.6C11.462 204.8 0 216.262 0 230.4v51.2c0 14.138 11.462 25.6 25.6 25.6zm460.8-85.333a8.533 8.533 0 0 1 8.533 8.533v51.2a8.533 8.533 0 0 1-8.533 8.533h-8.533v-68.267h8.533zm-51.2-102.4c14.138 0 25.6 11.462 25.6 25.6v221.867c0 14.138-11.462 25.6-25.6 25.6s-25.6-11.462-25.6-25.6V145.067c0-14.139 11.462-25.6 25.6-25.6zM341.333 102.4c0-14.138 11.462-25.6 25.6-25.6s25.6 11.462 25.6 25.6v307.2c0 14.138-11.462 25.6-25.6 25.6s-25.6-11.462-25.6-25.6zm-17.066 119.467v68.267H187.733v-68.267zM119.467 102.4c0-14.138 11.462-25.6 25.6-25.6s25.6 11.462 25.6 25.6v307.2c0 14.138-11.462 25.6-25.6 25.6-14.139 0-25.6-11.462-25.6-25.6zM51.2 145.067c0-14.139 11.462-25.6 25.6-25.6s25.6 11.462 25.6 25.6v221.867c0 14.138-11.462 25.6-25.6 25.6s-25.6-11.462-25.6-25.6zM17.067 230.4a8.533 8.533 0 0 1 8.533-8.533h8.533v68.267H25.6a8.533 8.533 0 0 1-8.533-8.533z" fill="#a37951" opacity="1" data-original="#a37951" class=""></path></g></svg>