<svg xmlns="http://www.w3.org/2000/svg" version="1.1" xmlns:xlink="http://www.w3.org/1999/xlink" width="512" height="512" x="0" y="0" viewBox="0 0 64 64" style="enable-background:new 0 0 512 512" xml:space="preserve" class=""><g><path d="M41 20a19.621 19.621 0 0 0-3.09.25A20.86 20.86 0 0 0 27.5 14.5l5.24-5.83a.994.994 0 0 0 .19-1.04l-2-5A1 1 0 0 0 30 2H16a1 1 0 0 0-.93.63l-2 5a.994.994 0 0 0 .19 1.04l5.24 5.83A20.993 20.993 0 0 0 23 56a19.621 19.621 0 0 0 3.09-.25A20.722 20.722 0 0 0 41 62a21 21 0 0 0 0-42ZM28.68 4h.64l1.2 3h-3.04Zm1.08 5-4.53 5.03L26.74 9Zm-3.24-5-1.2 3h-4.64l-1.2-3Zm-1.86 5-1.51 5.01h-.3L21.34 9Zm-7.98-5h.64l1.2 3h-3.04Zm-.44 5h3.02l1.51 5.03ZM23 54a19 19 0 0 1-1.9-37.91 20.1 20.1 0 0 1 3.8 0 18.916 18.916 0 0 1 11.93 5.9A18.856 18.856 0 0 1 42 35a18.852 18.852 0 0 1-9.99 16.71 13.952 13.952 0 0 1-2.16-2.25A16.114 16.114 0 0 0 39 35a16.018 16.018 0 0 0-16-16 15.993 15.993 0 0 0-.46 31.98 21.479 21.479 0 0 0 1.93 2.96c-.48.03-.97.06-1.47.06Zm19.44-26.93A14 14 0 0 1 41 55a13.763 13.763 0 0 1-7.19-2 20.978 20.978 0 0 0 8.63-25.93ZM28.75 47.76A13.842 13.842 0 0 1 27 41a14.1 14.1 0 0 1 8.25-12.76A13.842 13.842 0 0 1 37 35a14.1 14.1 0 0 1-8.25 12.76Zm-7.19 1.17A14 14 0 0 1 23 21a13.763 13.763 0 0 1 7.19 2 20.978 20.978 0 0 0-8.63 25.93ZM41 60a18.989 18.989 0 0 1-9.01-35.71 13.952 13.952 0 0 1 2.16 2.25A16.114 16.114 0 0 0 25 41a16.018 16.018 0 0 0 16 16 15.993 15.993 0 0 0 .46-31.98 21.479 21.479 0 0 0-1.93-2.96c.48-.03.97-.06 1.47-.06a19 19 0 0 1 0 38Z" fill="#ba8552" opacity="1" data-original="#ba8552" class=""></path></g></svg>