<svg xmlns="http://www.w3.org/2000/svg" version="1.1" xmlns:xlink="http://www.w3.org/1999/xlink" width="512" height="512" x="0" y="0" viewBox="0 0 24 24" style="enable-background:new 0 0 512 512" xml:space="preserve" class=""><g><path d="M12 16.5a.5.5 0 0 1-.384-.18c-3.479-4.176-3.479-8.965 0-13.141a.517.517 0 0 1 .768 0c3.479 4.176 3.479 8.965 0 13.141a.5.5 0 0 1-.384.18zm0-12.197c-2.675 3.532-2.675 7.362 0 10.894 2.675-3.532 2.675-7.362 0-10.894zM12 21a.5.5 0 0 1-.384-.18c-.818-.982-1.454-2.019-1.889-3.081a.5.5 0 0 1 .925-.379c.325.796.777 1.579 1.347 2.335a10.547 10.547 0 0 0 1.347-2.335.5.5 0 1 1 .925.379c-.435 1.062-1.07 2.099-1.889 3.081A.493.493 0 0 1 12 21z" fill="#a37951" opacity="1" data-original="#a37951" class=""></path><path d="M12.009 16.49a.5.5 0 0 1-.045-.998c4.752-.44 7.365-2.871 7.97-7.425-2.188.295-3.903 1.063-5.107 2.284a.5.5 0 1 1-.713-.702c1.485-1.506 3.618-2.396 6.341-2.647a.495.495 0 0 1 .399.144.505.505 0 0 1 .145.399c-.491 5.431-3.5 8.439-8.942 8.943-.017.002-.033.002-.048.002z" fill="#a37951" opacity="1" data-original="#a37951" class=""></path><path d="M17.506 19.006c-1.94 0-3.881-.737-5.81-2.213a.5.5 0 1 1 .607-.794c3.496 2.674 6.9 2.678 10.395.008-1.587-1.208-3.176-1.87-4.731-1.972a.5.5 0 0 1-.466-.532.486.486 0 0 1 .532-.466c1.927.126 3.874.996 5.786 2.584a.498.498 0 0 1 .001.769c-2.093 1.744-4.204 2.616-6.314 2.616z" fill="#a37951" opacity="1" data-original="#a37951" class=""></path><path d="M6.494 19.006c-2.11 0-4.221-.872-6.314-2.616a.498.498 0 0 1 .001-.769c1.912-1.588 3.859-2.458 5.786-2.584.296-.021.514.191.532.466s-.19.514-.466.532c-1.556.102-3.145.765-4.731 1.972 3.493 2.67 6.899 2.666 10.395-.008a.5.5 0 1 1 .607.794c-1.929 1.475-3.869 2.213-5.81 2.213z" fill="#a37951" opacity="1" data-original="#a37951" class=""></path><path d="M11.991 16.49c-.016 0-.031 0-.047-.002-5.442-.504-8.451-3.513-8.942-8.943a.5.5 0 0 1 .544-.543c2.723.25 4.855 1.141 6.341 2.647a.5.5 0 0 1-.713.702C7.97 9.13 6.254 8.363 4.066 8.067c.604 4.554 3.218 6.985 7.97 7.425a.5.5 0 0 1-.045.998z" fill="#a37951" opacity="1" data-original="#a37951" class=""></path></g></svg>